<svg id="Layer_1" data-name="Layer 1" xmlns="http://www.w3.org/2000/svg" viewBox="0 0 115.76 51"><defs><style>.cls-1{fill:#e2007d;}</style></defs><title>724</title><g id="Layer_2" data-name="Layer 2"><g id="Layer_1-2" data-name="Layer 1-2"><path class="cls-1" d="M83.81,62.66v-20a5,5,0,0,1,2.94-4.9,5,5,0,0,1,7.1,4.7c0,6.13,0,12.25,0,18.38,0,1.27.38,1.59,1.58,1.53,1.92-.1,3.85-0.07,5.78,0,1,0,1.24-.19.93-1.23a19.71,19.71,0,0,1,1.24-15.51c3.38-6.43,9.28-9,16.18-8.17a4.93,4.93,0,0,1,4.58,5.66c-0.23,2.64-2.35,4.46-5.34,4.47-2.48,0-4.85.25-6.69,2.16a7.29,7.29,0,0,0,4.69,12.48c0.93,0.07,1.88,0,2.81.09A5.08,5.08,0,0,1,119,72.45c-7.91,0-15.81,0-23.72,0-1.17,0-1.5.3-1.48,1.46,0.09,3,0,5.93,0,8.9,0,3.14-2,5.31-4.89,5.37a5,5,0,0,1-5.13-5.34c0-5.44,0-10.87,0-16.31Q83.81,64.59,83.81,62.66Z" transform="translate(-8.37 -37.25)"/><path class="cls-1" d="M8.37,58.27V42.7c0-3.25,2-5.44,5-5.43s5,2.21,5,5.43q0,14.6,0,29.2c0,0.5,0,1,0,1.48a3.77,3.77,0,0,0,7.52.17A16,16,0,0,0,26,71.64V42.58c0-3.75,3.17-6.14,6.59-5a5,5,0,0,1,3.43,5c0,5.44,0,10.87,0,16.31V73.08a16.48,16.48,0,0,1-2.48,8.87c-3.17,5.12-8.22,7.17-14.6,6C14.13,87,9.9,82.4,8.75,76.77a18.76,18.76,0,0,1-.38-3.83C8.39,68.05,8.37,63.16,8.37,58.27Z" transform="translate(-8.37 -37.25)"/><path class="cls-1" d="M56.13,71.32c0,4,0,7.79,0,11.59a5,5,0,0,1-6.52,5,4.8,4.8,0,0,1-3.47-4,8.79,8.79,0,0,1-.08-1.48V43c0-2.79,1.16-4.65,3.3-5.41a5,5,0,0,1,6.75,5c0,4.89,0,9.79,0,14.67A3.69,3.69,0,0,0,58.88,61,3.77,3.77,0,0,0,63,59.51a5,5,0,0,0,.72-3c0-4.79,0-9.58,0-14.37a4.81,4.81,0,0,1,3.62-4.7,5.07,5.07,0,0,1,5.5,1.94,5.15,5.15,0,0,1,.89,3.08c0,5.53.27,11.07-.15,16.59a14.78,14.78,0,0,1-4.9,10.16C65.12,72.52,60.93,73.17,56.13,71.32Z" transform="translate(-8.37 -37.25)"/></g></g></svg>