<svg id="Layer_1" data-name="Layer 1" xmlns="http://www.w3.org/2000/svg" viewBox="0 0 103.63 118.65"><defs><style>.cls-1{fill:#fff;}.cls-2{fill:#16327e;}</style></defs><title>mobillet-02</title><path class="cls-1" d="M116.68,22.75c0-3.58-1-8.53-3.87-11.68-3.39-3.71-8.22-4.87-12.48-5.24a8.11,8.11,0,0,0-1.72-.17H72.79L65,5.7c-2.79,0-5.36,0-7.8,0H31.37a8.11,8.11,0,0,0-1.72.17c-4.26.38-9.11,1.53-12.48,5.24C14.52,14,13.45,18.49,13.32,22a20.44,20.44,0,0,0,0,4.37L13.19,94.47c0,6.2,1,10.05,6.24,14.44a16.08,16.08,0,0,0,7.31,3.63L80,123.89a20.3,20.3,0,0,0,4.05.43c8.72,0,14.14-6.61,14.14-17.25v-6.93A19.73,19.73,0,0,0,106.43,98a32.27,32.27,0,0,0,3.22-2.11c6.08-4.69,7.16-8.63,7.16-15.16Z" transform="translate(-13.19 -5.68)"/><path class="cls-2" d="M67.87,44.1l0,60.52c-3.66.23-38.81-7.91-41.21-9.16A19.73,19.73,0,0,1,23,93.4l-1.13-1A14.35,14.35,0,0,1,20,90.22,18.94,18.94,0,0,1,18.58,88c-0.52-.9-0.4.38-0.4,0.7,0,3.29-.38,8.86.75,11.6a11.3,11.3,0,0,0,8.7,8l53.28,11.36c9.67,2,13-4.86,13-12.55V66.6c0-6,.09-12,0-18-0.1-6.37-4.9-12-10.92-13.69l-2.57-.52-52-11.3c-2.49-.54-6-1.88-7-5.2-0.35-1.51.14-2.9,0.22-4.1-0.69,0-2.05,2.38-2.31,2.87C17.75,19.54,17,24.77,18,27.79s4.63,5.83,7.86,6.58l38.61,9A23.86,23.86,0,0,1,67.87,44.1Z" transform="translate(-13.19 -5.68)"/><path class="cls-2" d="M101.38,47.62V95.42c1,0.13,4.54-2.13,5.61-3,4.63-3.58,5.45-6,5.44-11.7l-0.11-58c0-2.75-.75-6.57-2.73-8.73-3.54-3.89-9.79-4-14.63-4-12.59,0-25.19.06-37.78,0H31.37a2.22,2.22,0,0,0-1.83.67c-2,2.1-.5,5.08,2.24,5.84,17.37,4.81,35.81,6.87,53.54,10.83A19.85,19.85,0,0,1,94,31.94C98.29,36,101.38,41.67,101.38,47.62Z" transform="translate(-13.19 -5.68)"/><path class="cls-1" d="M79.14,85.53c8,3.39,12.43-6.3,7.53-13.28a10.78,10.78,0,0,0-4.85-3.91C71.33,64.44,68.1,80.87,79.14,85.53Z" transform="translate(-13.19 -5.68)"/></svg>