<?xml version="1.0" encoding="utf-8"?>
<!-- Generator: Adobe Illustrator 19.2.1, SVG Export Plug-In . SVG Version: 6.00 Build 0)  -->
<svg version="1.1" id="Layer_1" xmlns="http://www.w3.org/2000/svg" xmlns:xlink="http://www.w3.org/1999/xlink" x="0px" y="0px"
	 viewBox="0 0 130 130" style="enable-background:new 0 0 130 130;" xml:space="preserve">
<style type="text/css">
	.st0{fill:url(#SVGID_1_);}
	.st1{opacity:0.6;}
	.st2{clip-path:url(#SVGID_3_);}
	.st3{opacity:0.3;fill:#FFFFFF;enable-background:new    ;}
	.st4{opacity:0.7;fill:#FFFFFF;enable-background:new    ;}
	.st5{fill:#FFFFFF;}
	.st6{fill:url(#SVGID_4_);}
</style>
<g>
	<title>netbank-02</title>
	
		<linearGradient id="SVGID_1_" gradientUnits="userSpaceOnUse" x1="4.77" y1="1273.27" x2="4.77" y2="1156.37" gradientTransform="matrix(1 0 0 1 60.23 -1149.8199)">
		<stop  offset="0" style="stop-color:#0046AB"/>
		<stop  offset="0.64" style="stop-color:#1B8CC3"/>
		<stop  offset="1" style="stop-color:#28AECF"/>
	</linearGradient>
	<path class="st0" d="M102.4,6.6H27.6c-11.6,0-21,9.4-21,21v74.9c0,11.6,9.4,21,21,21h74.9c11.6,0,21-9.4,21-21V27.6
		C123.4,16,114,6.6,102.4,6.6z"/>
	<g class="st1">
		<g>
			<defs>
				<path id="SVGID_2_" d="M102.4,6.6H27.6c-11.6,0-21,9.4-21,21v74.9c0,11.6,9.4,21,21,21h74.9c11.6,0,21-9.4,21-21V27.6
					C123.4,16,114,6.6,102.4,6.6z"/>
			</defs>
			<clipPath id="SVGID_3_">
				<use xlink:href="#SVGID_2_"  style="overflow:visible;"/>
			</clipPath>
			<g class="st2">
				<path class="st3" d="M-12.2,20.1c-5.1,11.2-9.3,22.7-11.1,32.9c2.9,0,5.7,0.6,8.3,1.6c4.5,1.8,8.6,4.4,12.2,7.5
					c1.8-6.8,4.2-13.5,7.1-19.9c2-4.5,4.5-8.8,7.3-12.8C4.9,23.8-3.9,21.2-12.2,20.1"/>
				<path class="st3" d="M19,158.6c-1.8,4.4-4.1,8.6-7,12.3c-1.7,2.2-3.7,4.1-6,5.7c5.4,6.2,12.9,11.9,20.8,16.8
					c6-5.1,12-11.5,15.4-19c-3.6-1.3-7-3.1-10.2-5.2C27.3,166.2,23,162.6,19,158.6"/>
				<path class="st3" d="M-23.9,53c-4.4,0.1-8.7,0.9-12.8,2.3c-2.6,0.9-5.2,2-7.7,3.2c-0.2,9,0.2,18.2,2.1,25.7
					c2.2-1.3,4.6-2.3,7.1-2.8c3-0.6,6-1,9.1-1c1.2,0,2.3,0.1,3.5,0.2c-0.4-1.9-0.8-4-1.1-6.2c-0.4-3.4-0.7-6.7-0.7-10.1v-0.7
					c0-3.5,0.3-7,1-10.4c0-0.1,0-0.1,0-0.2L-23.9,53"/>
				<path class="st3" d="M44.5,148.3c0.5,3,0.8,6,0.8,9v1c0,2.2-0.1,4.4-0.4,6.6c-0.4,3.3-1.3,6.5-2.7,9.6
					c6.6,2.4,13.3,4.1,20.2,5.2c4.8,0.8,9.7,1.3,14.7,1.8c3.1-9.4,4.9-20.1,3.1-30.2l0,0c-3.5,0.5-6.9,0.7-10.4,0.7
					c-1.6,0-3.1-0.1-4.6-0.2C58.3,151.3,51.3,150.1,44.5,148.3"/>
				<path class="st3" d="M-42.3,84.2L-42.3,84.2c-5.6,3.2-10.6,8.4-14.7,13.5c2.6,6.5,6,12.9,10,17.7c1.4-2.1,3-3.9,4.9-5.6
					c3.1-2.6,6.5-4.9,10.1-6.7c-2.8-3.3-5.2-7-7.2-10.8C-40.6,89.8-41.6,87-42.3,84.2"/>
				<path class="st3" d="M104.5,106.1c-5,3.6-10.2,6.7-15.8,9.3c-2.5,1.1-4.9,2.2-7.4,3.2c-5.5,2.2-11.2,4.1-17,5.6
					c4.7,4.7,8.7,10,12,15.7c0.3,0.5,0.6,1.1,0.9,1.7c1.5,3.1,2.6,6.4,3.1,9.7c14.1-1.8,30-7.1,45.8-13.7
					C121.4,126,114.5,114.4,104.5,106.1"/>
				<path class="st3" d="M-47,115.4L-47,115.4c-3.5,5.1-5.9,11.6-7.6,17.7c4.4,4,9.5,7.8,14.9,9.9c0.4-2.5,1.1-4.9,2.1-7.2
					c0-0.1,0.1-0.1,0.1-0.2c1.6-3.6,3.7-7.1,6.1-10.3c-3.6-1.2-7.1-3-10.3-5.1C-43.6,118.9-45.4,117.2-47,115.4"/>
				<path class="st3" d="M96.5,55.4c-2.5,5.6-5.7,10.9-9.3,15.9c-5.5,7.4-11.7,14.3-18.5,20.6c7.9,1.2,15.6,3.4,23,6.4
					c4.7,1.9,9,4.6,12.9,7.8c14-10.1,27.1-24.2,38.9-39.2C128.7,60.4,112.5,55.7,96.5,55.4"/>
				<path class="st3" d="M-4.4,156c-3.2,2.6-6.7,4.8-10.5,6.5c-2.2,1-4.5,1.7-6.9,1.9c1.7,6.7,5.2,13.6,9.1,19.8
					c6.3-1.3,13.2-3.6,18.7-7.6c-2-2.3-3.8-4.8-5.2-7.5C-1.4,165-3.1,160.6-4.4,156"/>
				<path class="st3" d="M-39.6,142.9c-1.1,6.2-0.8,13.2,0.1,19.7c2.2,0.6,4.4,1.1,6.7,1.5c2.3,0.4,4.7,0.6,7,0.6
					c1.4,0,2.8-0.1,4.2-0.3c-0.7-2.6-1.1-5.2-1.1-7.9v-1c0-3.9,0.4-7.8,1.2-11.7c-2.7,0.5-5.4,0.8-8.1,0.8c-1.1,0-2.1,0-3.2-0.1
					C-35.3,144.3-37.5,143.8-39.6,142.9"/>
				<path class="st3" d="M42.5-4.3C30.5,6.5,19.4,18,11.6,29.4c2.8,2.3,5.1,5,6.8,8.1c3,5.4,5.3,11.2,6.8,17.3
					c5.5-6.5,11.6-12.5,18.1-18c4.5-3.8,9.4-7.2,14.5-10.2C55.6,14.5,49.5,4,42.5-4.3"/>
				<path class="st3" d="M107.1,8.1c-7,1.7-14,3.7-20.7,5.9c-9.9,3.2-19.5,7.4-28.6,12.5c0.6,3.1,0.8,6.2,0.8,9.3
					c0,1.8-0.1,3.6-0.3,5.4c-0.9,8.1-2.6,16-5.2,23.7c8.3-3.4,16.8-6.1,25.6-7.9c5.3-1.1,10.6-1.7,16-1.6h1.8
					C103.3,40.5,106.2,23.8,107.1,8.1"/>
				<path class="st4" d="M22.8,138.5c0.1,6.9-1.2,13.7-3.8,20.1c3.9,4,8.3,7.6,13,10.7c3.2,2.1,6.7,3.8,10.2,5.2
					c1.4-3,2.3-6.3,2.7-9.6c0.2-2.2,0.4-4.4,0.4-6.6v-1c-0.1-3-0.3-6.1-0.8-9C36.7,146.4,29.4,143.1,22.8,138.5"/>
				<path class="st4" d="M-23.3,53L-23.3,53c0,0.1,0,0.1,0,0.2c-0.6,3.4-1,6.9-1,10.4v0.7c0,3.4,0.3,6.8,0.7,10.1
					c0.3,2.1,0.6,4.2,1.1,6.2l0,0c6.1,0.5,11.9,2.4,17.1,5.6c-0.3-8.1,0.6-16.2,2.7-24c-3.7-3.1-7.8-5.7-12.3-7.5
					C-17.6,53.6-20.5,53-23.3,53"/>
				<path class="st4" d="M-26.1,80.4c-3,0-6.1,0.3-9,1c-2.5,0.6-4.9,1.5-7.1,2.8c0.7,2.8,1.7,5.6,3,8.2c2,3.9,4.5,7.5,7.3,10.8
					c4.2-2.1,8.6-3.4,13.2-4.1c1.1-0.1,2.2-0.2,3.3-0.3c-3.5-5.6-5.9-11.8-7.2-18.3C-23.8,80.5-25,80.4-26.1,80.4"/>
				<path class="st4" d="M64.3,124.1c-7.6,2-15.4,3.1-23.2,3.2H41c-1.6,0-3.2-0.1-4.7-0.2c4.2,6.4,7,13.6,8.2,21.2
					c6.8,1.8,13.8,3,20.8,3.5c1.5,0.1,3,0.2,4.6,0.2c3.5,0,7-0.2,10.4-0.7c-0.6-3.4-1.6-6.7-3.1-9.7c-0.3-0.6-0.6-1.1-0.9-1.7
					C73,134.1,69,128.8,64.3,124.1"/>
				<path class="st4" d="M-32,103.2L-32,103.2c-3.6,1.8-7,4-10.1,6.6c-1.9,1.6-3.5,3.5-4.9,5.6c1.6,1.9,3.4,3.5,5.4,4.9
					c3.2,2.1,6.6,3.8,10.2,5.1c3.4-4.7,7.7-8.6,12.7-11.7C-23.7,111.1-28.3,107.5-32,103.2"/>
				<path class="st4" d="M68.6,91.9c-7.7,7.2-16.3,13.3-25.8,18c8,3.2,15.3,8.1,21.4,14.2c5.8-1.5,11.5-3.3,17-5.5
					c2.4-1,4.9-2,7.4-3.2c5.6-2.6,10.9-5.7,15.8-9.3c-3.9-3.2-8.2-5.9-12.8-7.8C84.2,95.3,76.5,93.1,68.6,91.9"/>
				<path class="st4" d="M7.4,141.8c-3,5.5-6.9,10.3-11.8,14.2c1.3,4.6,3,9,5.2,13.2c1.4,2.7,3.2,5.2,5.2,7.5c2.3-1.6,4.3-3.5,6-5.7
					c2.9-3.8,5.2-7.9,7-12.3C14.1,153.8,10.2,148,7.4,141.8"/>
				<path class="st4" d="M-6.2,137.4c-4.7,3.2-10,5.4-15.5,6.5c-0.8,3.8-1.2,7.8-1.2,11.7v1c0.1,2.7,0.5,5.3,1.1,7.9
					c2.4-0.3,4.7-1,6.9-1.9c3.8-1.7,7.3-3.9,10.4-6.5C-6.1,150-6.7,143.7-6.2,137.4"/>
				<path class="st4" d="M-31.3,125.3L-31.3,125.3c-2.4,3.2-4.5,6.6-6.1,10.3l-0.1,0.2c-1,2.3-1.7,4.7-2.1,7.1l0,0
					c2.1,0.8,4.3,1.4,6.6,1.5c1.1,0.1,2.1,0.1,3.2,0.1c2.7,0,5.5-0.2,8.2-0.7c1.1-5.9,3.3-11.5,6.4-16.6c-1.1,0.1-2.1,0.1-3.2,0.1
					h-0.1C-22.9,127.5-27.2,126.7-31.3,125.3"/>
				<path class="st4" d="M11.6,29.4L11.6,29.4c-2.8,4.1-5.2,8.4-7.3,12.8c-2.9,6.4-5.3,13.1-7.1,19.9c5.4,4.6,9.6,10.3,12.5,16.8
					c4-8.7,9.2-16.8,15.5-24.1l0,0c-1.4-6-3.7-11.8-6.8-17.3C16.7,34.4,14.4,31.7,11.6,29.4"/>
				<path class="st4" d="M57.8,26.6L57.8,26.6c-5.1,2.9-10,6.3-14.5,10.2c-6.5,5.5-12.5,11.5-18,18l0,0c2.1,8.5,2.5,17.2,1.3,25.9
					c8-6.5,17-11.8,26.6-15.7c2.6-7.7,4.3-15.6,5.2-23.7c0.2-1.8,0.3-3.6,0.3-5.4C58.6,32.8,58.3,29.7,57.8,26.6L57.8,26.6
					L57.8,26.6z"/>
				<path class="st4" d="M94.7,55.4c-5.4,0-10.7,0.5-16,1.6c-8.8,1.9-17.3,4.5-25.6,8c-3.2,9.8-7.8,19-13.9,27.3
					c1.7-0.3,3.4-0.6,5.2-0.8c3.3-0.4,6.7-0.6,10-0.6c4.7,0,9.5,0.4,14.1,1.1c6.8-6.3,13-13.2,18.5-20.6c3.7-4.9,6.8-10.3,9.3-15.9
					L94.7,55.4"/>
				<path class="st5" d="M-22.6,80.6c1.3,6.5,3.7,12.7,7.2,18.3c4.7-0.2,9.4,0.7,13.6,2.7C-4,96.7-5.3,91.5-5.5,86.1
					C-10.7,82.9-16.5,81-22.6,80.6"/>
				<path class="st5" d="M19.3,122.9c2.3,4.9,3.5,10.2,3.6,15.7c6.6,4.5,13.9,7.8,21.6,9.8c-1.2-7.6-4-14.8-8.2-21.2
					C30.4,126.9,24.6,125.4,19.3,122.9"/>
				<path class="st5" d="M-18.8,99.2c-4.6,0.6-9.1,2-13.2,4c3.7,4.4,8.2,7.9,13.3,10.5c4-2.5,8.4-4.1,13.1-4.7c-4-2.6-7.3-6-9.8-10
					C-16.6,98.9-17.7,99-18.8,99.2"/>
				<path class="st5" d="M42.8,109.9c-5.9,2.9-12.2,4.8-18.7,5.5c4.9,3,9,7,12.2,11.8c1.6,0.1,3.2,0.2,4.9,0.2
					c7.8-0.1,15.6-1.2,23.2-3.2C58.2,118,50.9,113.1,42.8,109.9"/>
				<path class="st5" d="M11.9,127.1c-0.5,5.2-2,10.2-4.5,14.7c2.8,6.3,6.8,12,11.6,16.8c2.6-6.4,3.9-13.2,3.8-20.1
					C18.4,135.5,14.7,131.6,11.9,127.1"/>
				<path class="st5" d="M4.1,127.1c-2.7,4.1-6.2,7.6-10.3,10.4c-0.5,6.2,0.1,12.5,1.8,18.6c4.8-3.9,8.8-8.8,11.8-14.2
					C5.3,137.2,4.2,132.1,4.1,127.1"/>
				<path class="st5" d="M-2.2,123.3c-4,2.3-8.5,3.7-13.1,4.1c-3.1,5.1-5.2,10.7-6.4,16.6c5.6-1.1,10.9-3.2,15.6-6.4
					C-5.7,132.6-4.4,127.7-2.2,123.3"/>
				<path class="st5" d="M-18.7,113.7c-4.9,3.1-9.2,7-12.7,11.7c4.1,1.4,8.4,2.2,12.8,2.2c1.1,0,2.1,0,3.2-0.1
					c2.5-4.1,5.8-7.7,9.6-10.6C-10.3,116.7-14.7,115.7-18.7,113.7"/>
				<path class="st5" d="M-2.7,62.1c-2.1,7.8-3.1,15.9-2.7,24c4.3,2.6,7.9,6.2,10.5,10.5c0.5-6.1,2.1-12.1,4.7-17.7
					C6.9,72.4,2.6,66.7-2.7,62.1"/>
				<path class="st5" d="M25.2,54.8C19,62.1,13.8,70.2,9.8,78.9c2.3,5.3,3.5,11,3.5,16.7c3.6-5.7,8-10.7,13.3-14.9
					C27.7,72,27.3,63.2,25.2,54.8"/>
				<path class="st5" d="M53.1,65c-9.6,3.9-18.5,9.2-26.6,15.7c-0.8,6.5-2.8,12.7-5.9,18.5c5.8-3.4,12.1-5.8,18.7-7
					C45.3,83.9,50,74.7,53.1,65"/>
				<path class="st5" d="M44.5,91.4c-1.8,0.2-3.5,0.5-5.2,0.8c-4,5.6-9,10.4-14.6,14.4c6.2-0.2,12.4,1,18.2,3.3
					c9.4-4.7,18.1-10.8,25.8-18C60.6,90.6,52.5,90.4,44.5,91.4"/>
			</g>
		</g>
	</g>
	<path class="st5" d="M106.7,66.4c0,24.3-19.3,43.9-43.1,43.9S20.5,90.7,20.5,66.4s19.3-43.9,43.1-43.9S106.7,42.2,106.7,66.4z"/>
	
		<linearGradient id="SVGID_4_" gradientUnits="userSpaceOnUse" x1="-39.7863" y1="1214.9724" x2="46.4859" y2="1214.9724" gradientTransform="matrix(1 0 0 1 60.23 -1149.8199)">
		<stop  offset="0" style="stop-color:#0046AB"/>
		<stop  offset="0.64" style="stop-color:#1B8CC3"/>
		<stop  offset="1" style="stop-color:#28AECF"/>
	</linearGradient>
	<path class="st6" d="M65.4,22.5c-23.7-1-43.8,17.7-44.9,41.9c-0.9,19.4,11.1,37,29.4,43.4c0,0,0.7,1,4.9-5.3c0.3-0.3,0.3-0.8,0-1.2
		C38.3,96.9,27.1,81.7,28,64.7c0.9-19.9,17.5-35.4,37.1-34.6c19.6,0.9,35,16.2,34,37.3c-1.2,12.1-10.9,23.8-28.3,22.5
		c-14.9-1.1-16.3-12.7-16.6-15.7c0,0,29.1,0.2,31.2-0.2c2-0.4,4.3-1.6,3.9-7.7c-0.3-3.9-1.4-7.6-3.4-10.9c-2-3.4-4-6-7.8-8.1
		c-3.7-2.2-8-3.3-12.4-3.2c-3.3-0.1-6.5,0.7-9.4,2.3c-9.4,4.6-13.6,17-12,28.5c1.3,9.2,7.7,18.1,16.9,21.5
		c16.8,6.3,32.3-0.7,40.3-12.9c1.9-3,3.3-6.3,4-9.7l0,0c0.3-1.7,0.9-3.9,1-5.6C108.5,42.7,89.2,23.5,65.4,22.5z M57,57.9
		c4.8-6.5,21-5.2,21.9,8.8l-25.1,0.1C53.8,63.5,55,60.4,57,57.9L57,57.9L57,57.9z"/>
</g>
</svg>
