<svg id="Layer_1" data-name="Layer 1" xmlns="http://www.w3.org/2000/svg" viewBox="0 0 110.31 127"><defs><style>.cls-1{fill:#8bd0e2;}.cls-2{fill:#5085bc;}.cls-3{fill:#0b4da0;}.cls-4{fill:#3875b4;}.cls-5{fill:#279fc7;}.cls-6{fill:#0a2972;}</style></defs><title>Ramzineh-02--3</title><path class="cls-1" d="M120.31,35.07A62.67,62.67,0,0,1,97.85,59.83,66.38,66.38,0,0,1,82.29,67,67,67,0,0,1,65.2,69.86a75.3,75.3,0,0,1-8.74-.2c-1.46-.15-2.92-0.26-4.37-0.5-0.72-.12-1.46-0.2-2.18-0.35l-2.16-.43a51.29,51.29,0,0,1-16.28-6.7A55,55,0,0,1,18.36,50.1a46.23,46.23,0,0,1-8.31-15l0.73-.42a102.07,102.07,0,0,0,11.8,11.19,79.31,79.31,0,0,0,13.11,8.49c2.32,1.14,4.62,2.28,7,3.24s4.77,1.91,7.22,2.7l1.85,0.58c0.61,0.21,1.24.34,1.87,0.5,1.25,0.35,2.51.59,3.79,0.86,0.64,0.14,1.28.21,1.92,0.32a18,18,0,0,0,1.94.26L63.26,63c0.65,0.06,1.31.07,2,.1A60.83,60.83,0,0,0,80.87,61.6a61.47,61.47,0,0,0,14.89-5.42,60.48,60.48,0,0,0,6.89-4.12c1.09-.79,2.2-1.55,3.23-2.41S108,47.92,109,47c0.5-.43,1-0.92,1.51-1.39s1-.93,1.45-1.43c0.92-1,1.88-2,2.74-3a65.52,65.52,0,0,0,4.95-6.53Z" transform="translate(-10 -3)"/><path class="cls-2" d="M10.34,34.46A62.67,62.67,0,0,1,43,41.52,66.38,66.38,0,0,1,57.08,51.4a67,67,0,0,1,11,13.39,75.23,75.23,0,0,1,4.21,7.67c0.6,1.34,1.23,2.66,1.75,4,0.26,0.69.56,1.36,0.79,2.06l0.71,2.09a51.29,51.29,0,0,1,2.34,17.45,55,55,0,0,1-3.47,17.14,46.23,46.23,0,0,1-8.83,14.7l-0.73-.42a102,102,0,0,0,3.79-15.81,79.31,79.31,0,0,0,.8-15.6c-0.18-2.58-.33-5.14-0.7-7.69s-0.76-5.07-1.3-7.58L67,80.92c-0.13-.63-0.34-1.25-0.5-1.87-0.32-1.26-.75-2.48-1.15-3.71-0.2-.62-0.46-1.21-0.69-1.82a18.22,18.22,0,0,0-.74-1.81l-0.82-1.78c-0.27-.59-0.6-1.16-0.89-1.74a60.84,60.84,0,0,0-9.1-12.82A61.47,61.47,0,0,0,40.91,45.17a60.47,60.47,0,0,0-7-3.91c-1.22-.55-2.44-1.12-3.71-1.59s-2.51-.94-3.81-1.38c-0.64-.24-1.3-0.39-1.94-0.59s-1.3-.39-2-0.54c-1.32-.3-2.64-0.64-4-0.86a65.51,65.51,0,0,0-8.14-1V34.46Z" transform="translate(-10 -3)"/><path class="cls-3" d="M64.82,130A62.67,62.67,0,0,1,54.6,98.16a64,64,0,0,1,7.64-33.31,75.3,75.3,0,0,1,4.52-7.48c0.85-1.18,1.69-2.4,2.62-3.51,0.46-.57.9-1.17,1.39-1.71l1.46-1.66A51.29,51.29,0,0,1,86.15,39.72a55,55,0,0,1,16.57-5.57,46.23,46.23,0,0,1,17.14.29v0.84a102.09,102.09,0,0,0-15.56,4.61A79.31,79.31,0,0,0,90.39,47c-2.14,1.44-4.29,2.86-6.3,4.45s-4,3.18-5.95,4.91l-1.45,1.32c-0.5.43-.91,0.91-1.38,1.37-0.93.9-1.77,1.89-2.64,2.86-0.44.5-.82,1-1.23,1.51A18.66,18.66,0,0,0,70.24,65l-1.08,1.6c-0.38.53-.71,1.1-1.06,1.65a60.83,60.83,0,0,0-6.53,14.3,61.46,61.46,0,0,0-2.74,15.65,60.45,60.45,0,0,0,.13,8c0.14,1.34.25,2.68,0.5,4s0.45,2.66.72,4c0.12,0.67.31,1.32,0.46,2s0.31,1.32.5,2c0.4,1.3.76,2.61,1.25,3.88a65.53,65.53,0,0,0,3.19,7.53Z" transform="translate(-10 -3)"/><path class="cls-4" d="M10,97.95A62.67,62.67,0,0,1,32.45,73.18a64,64,0,0,1,32.66-10,75.27,75.27,0,0,1,8.74.19c1.46,0.15,2.92.26,4.37,0.5,0.72,0.12,1.46.19,2.18,0.35l2.16,0.43A51.29,51.29,0,0,1,98.85,71.3,55,55,0,0,1,112,82.88a46.23,46.23,0,0,1,8.32,15l-0.73.42a102.08,102.08,0,0,0-11.8-11.19,79.31,79.31,0,0,0-13.11-8.49c-2.32-1.13-4.62-2.28-7-3.24s-4.77-1.9-7.22-2.7l-1.85-.58c-0.61-.21-1.24-0.34-1.87-0.5-1.25-.35-2.51-0.59-3.79-0.85-0.64-.14-1.28-0.21-1.92-0.32A18,18,0,0,0,69,70.17L67.06,70c-0.65-.06-1.31-0.07-2-0.1A60.83,60.83,0,0,0,49.46,71.4a61.47,61.47,0,0,0-14.93,5.45A60.44,60.44,0,0,0,27.63,81c-1.09.79-2.2,1.55-3.23,2.41S22.32,85.12,21.31,86c-0.5.43-1,.92-1.48,1.39s-1,.93-1.45,1.43c-0.92,1-1.88,2-2.74,3a65.5,65.5,0,0,0-4.95,6.53Z" transform="translate(-10 -3)"/><path class="cls-5" d="M65.5,3A62.67,62.67,0,0,1,75.72,34.83a64,64,0,0,1-7.65,33.31,75.3,75.3,0,0,1-4.52,7.47c-0.85,1.18-1.69,2.4-2.63,3.51-0.46.57-.9,1.16-1.39,1.71L58.09,82.5A51.29,51.29,0,0,1,44.15,93.25a55,55,0,0,1-16.57,5.56,46.23,46.23,0,0,1-17.14-.3V97.66A102.07,102.07,0,0,0,26,93a79.31,79.31,0,0,0,13.91-7.11c2.14-1.44,4.29-2.86,6.3-4.45s4-3.18,5.95-4.91l1.4-1.3c0.5-.43.91-0.91,1.38-1.37,0.93-.9,1.77-1.89,2.64-2.86,0.44-.5.82-1,1.23-1.51A17.63,17.63,0,0,0,60,68l1.13-1.6c0.38-.53.71-1.09,1.06-1.65a60.82,60.82,0,0,0,6.53-14.29,61.46,61.46,0,0,0,2.75-15.65,60.45,60.45,0,0,0-.13-8c-0.14-1.34-.25-2.68-0.5-4s-0.45-2.66-.71-4c-0.12-.67-0.31-1.32-0.46-2s-0.31-1.32-.5-2c-0.4-1.3-.76-2.61-1.25-3.88a65.45,65.45,0,0,0-3.19-7.55Z" transform="translate(-10 -3)"/><path class="cls-6" d="M119.94,98.56a62.67,62.67,0,0,1-32.67-7.07,64,64,0,0,1-25-23.28,75.3,75.3,0,0,1-4.2-7.67c-0.6-1.34-1.23-2.66-1.74-4-0.26-.69-0.56-1.36-0.79-2.06l-0.71-2.09a51.28,51.28,0,0,1-2.33-17.45A55,55,0,0,1,56,17.78,46.23,46.23,0,0,1,64.8,3.09L65.53,3.5a102.08,102.08,0,0,0-3.8,15.81,79.31,79.31,0,0,0-.8,15.6c0.18,2.58.33,5.14,0.69,7.69s0.72,5.07,1.26,7.58l0.42,1.89c0.13,0.64.33,1.25,0.5,1.88,0.32,1.26.75,2.48,1.15,3.71,0.2,0.62.46,1.21,0.69,1.82a18.22,18.22,0,0,0,.74,1.81l0.82,1.78c0.27,0.59.6,1.16,0.89,1.74a60.83,60.83,0,0,0,9.09,12.82,61.46,61.46,0,0,0,12.19,10.2,60.46,60.46,0,0,0,7,3.91c1.22,0.55,2.44,1.13,3.71,1.59s2.51,0.94,3.81,1.38c0.64,0.24,1.3.39,1.94,0.59s1.3,0.4,2,.54c1.32,0.3,2.64.65,4,.86a65.51,65.51,0,0,0,8.14,1Z" transform="translate(-10 -3)"/></svg>