<?xml version="1.0" encoding="utf-8"?>
<!-- Generator: Adobe Illustrator 19.2.1, SVG Export Plug-In . SVG Version: 6.00 Build 0)  -->
<svg version="1.1" id="Layer_1" xmlns="http://www.w3.org/2000/svg" xmlns:xlink="http://www.w3.org/1999/xlink" x="0px" y="0px"
	 viewBox="0 0 130 130" style="enable-background:new 0 0 130 130;" xml:space="preserve">
<style type="text/css">
	.st0{fill:url(#SVGID_1_);}
	.st1{fill:url(#SVGID_2_);}
	.st2{fill:url(#SVGID_3_);}
	.st3{fill:url(#SVGID_4_);}
</style>
<title>new club sign</title>
<g>
	<g id="Layer_1_1_">
		
			<linearGradient id="SVGID_1_" gradientUnits="userSpaceOnUse" x1="181.5088" y1="-175.464" x2="243.4788" y2="-239.5639" gradientTransform="matrix(1.0327 -3.467740e-002 3.603130e-002 -1.0321 -172.9388 -122.9718)">
			<stop  offset="0" style="stop-color:#01A0C6"/>
			<stop  offset="1" style="stop-color:#FFFFFF;stop-opacity:0"/>
		</linearGradient>
		<path class="st0" d="M8.1,52.4c7.7-7.6,26.8-0.8,42.6,15.2s22.3,35.2,14.5,42.8s-26.8,0.8-42.6-15.2S0.3,60,8.1,52.4z"/>
		
			<linearGradient id="SVGID_2_" gradientUnits="userSpaceOnUse" x1="116.8622" y1="-326.3706" x2="28.6122" y2="-414.6106" gradientTransform="matrix(1 0 0 -1 1.846063e-003 -292.4037)">
			<stop  offset="0" style="stop-color:#DA0000"/>
			<stop  offset="1" style="stop-color:#FFFFFF;stop-opacity:0"/>
		</linearGradient>
		<path class="st1" d="M59.9,47.7c21.4-21.1,48.4-28.4,60.3-16.3c11.9,12.1,4.1,38.9-17.4,60s-48.4,28.4-60.3,16.3
			S38.4,68.7,59.9,47.7z"/>
		
			<linearGradient id="SVGID_3_" gradientUnits="userSpaceOnUse" x1="65.3232" y1="-404.3806" x2="28.4532" y2="-326.7206" gradientTransform="matrix(1 0 0 -1 5.383351e-003 -292.405)">
			<stop  offset="0" style="stop-color:#FFFFFF;stop-opacity:0"/>
			<stop  offset="1" style="stop-color:#40A629"/>
		</linearGradient>
		<path class="st2" d="M32.1,33c12.2-4.5,28.5,9.8,36.6,31.8s4.8,43.4-7.4,47.9s-28.5-9.8-36.6-31.8S20,37.5,32.1,33z"/>
		
			<linearGradient id="SVGID_4_" gradientUnits="userSpaceOnUse" x1="91.3031" y1="-309.3874" x2="45.2431" y2="-412.8374" gradientTransform="matrix(1 0 0 -1 -1.444975e-002 -292.4043)">
			<stop  offset="0" style="stop-color:#FF8000"/>
			<stop  offset="1" style="stop-color:#FB9B8A;stop-opacity:0"/>
		</linearGradient>
		<path class="st3" d="M40.4,50.7C52.1,24.4,75,9,91.6,16.4S112,51,100.3,77.3S65.7,119,49.1,111.6S28.7,77,40.4,50.7z"/>
	</g>
</g>
</svg>
