<?xml version="1.0" encoding="utf-8"?>
<!-- Generator: Adobe Illustrator 21.1.0, SVG Export Plug-In . SVG Version: 6.00 Build 0)  -->
<svg version="1.1" id="Layer_1" xmlns="http://www.w3.org/2000/svg" xmlns:xlink="http://www.w3.org/1999/xlink" x="0px" y="0px"
	 viewBox="0 0 434.2 434.2" style="enable-background:new 0 0 434.2 434.2;" xml:space="preserve">
<style type="text/css">
	.st0{fill:#243481;stroke:#FFFFFF;stroke-width:7;stroke-miterlimit:10;}
	.st1{fill:#E01E22;}
	.st2{fill:#FFFFFF;}
	.st3{fill:#FF0019;}
	.st4{fill:#FFFFFF;stroke:#E01E22;stroke-width:5;stroke-miterlimit:10;}
</style>
<rect x="67.1" y="67.1" transform="matrix(0.7071 -0.7071 0.7071 0.7071 -89.9157 217.0793)" class="st0" width="300" height="300"/>
<rect x="104.6" y="104.6" transform="matrix(0.7071 -0.7071 0.7071 0.7071 -89.9157 217.0793)" class="st0" width="225" height="225"/>
<path class="st1" d="M219.4,373.1c-43.7,0-84.9-2.7-115.8-7.5c-15.5-2.4-27.6-5.3-36-8.5c-9.4-3.6-14-7.5-14-12.2s4.6-8.6,14-12.2
	c8.3-3.2,20.4-6,36-8.5c31-4.9,72.1-7.5,115.8-7.5s84.9,2.7,115.8,7.5c15.5,2.4,27.6,5.3,36,8.5c9.4,3.6,14,7.5,14,12.2
	s-4.6,8.6-14,12.2c-8.4,3.2-20.5,6-36,8.5C304.3,370.4,263.1,373.1,219.4,373.1z M219.4,324.8c-38.3,0-74.4,2.4-101.5,6.6
	c-39.7,6.2-40.2,13.3-40.2,13.6s0.5,7.3,40.2,13.5c27.1,4.3,63.2,6.6,101.5,6.6s74.4-2.4,101.5-6.6c39.7-6.2,40.2-13.3,40.2-13.5
	s-0.5-7.3-40.2-13.5C293.8,327.2,257.8,324.8,219.4,324.8z"/>
<path class="st2" d="M219.4,319.3c43.6,0,84.6,2.7,115.4,7.5s47.8,11.3,47.8,18.1s-17,13.3-47.8,18.1s-71.8,7.5-115.4,7.5
	s-84.6-2.6-115.4-7.5S56.2,351.8,56.2,345s17-13.3,47.8-18.1S175.8,319.3,219.4,319.3 M219.4,367.6c79.5,0,144.2-10.2,144.2-22.6
	s-64.7-22.6-144.2-22.6S75.3,332.5,75.3,345S139.9,367.6,219.4,367.6 M219.4,314.4c-43.9,0-85.1,2.7-116.2,7.6
	c-15.7,2.5-28,5.4-36.5,8.6c-3.8,1.4-15.6,5.9-15.6,14.5s11.7,13,15.6,14.5c8.5,3.2,20.8,6.1,36.5,8.6c31.1,4.9,72.3,7.6,116.2,7.6
	s85.1-2.7,116.2-7.6c15.7-2.5,28-5.4,36.5-8.6c3.9-1.5,15.6-5.9,15.6-14.5s-11.7-13-15.6-14.5c-8.5-3.2-20.8-6.1-36.5-8.6
	C304.6,317.1,263.3,314.4,219.4,314.4L219.4,314.4z M80.6,345c1.6-1.6,9.2-6.9,41.6-11.7c26.5-3.9,61.1-6,97.3-6s70.7,2.1,97.3,6
	c32.5,4.7,40,10.1,41.6,11.7c-1.6,1.6-9.2,6.9-41.6,11.7c-26.5,3.9-61.1,6-97.3,6s-70.7-2.1-97.3-6C89.7,351.9,82.1,346.5,80.6,345z
	"/>
<path class="st3" d="M219.4,376.7C148.5,376.7,91,319.2,91,248.3s57.5-128.4,128.4-128.4s128.4,57.5,128.4,128.4l0,0
	C347.8,319.1,290.3,376.6,219.4,376.7z"/>
<path class="st2" d="M219.4,122.3c69.5,0,125.9,56.4,125.9,125.9S289,374.2,219.4,374.2c-69.5,0-125.9-56.4-125.9-125.9
	C93.5,178.7,149.9,122.3,219.4,122.3C219.4,122.3,219.4,122.3,219.4,122.3 M219.4,117.3c-72.3,0-130.9,58.6-130.9,130.9
	s58.6,130.9,130.9,130.9c72.3,0,130.9-58.6,130.9-130.9c0-34.7-13.8-68-38.3-92.6C287.5,131,254.2,117.2,219.4,117.3L219.4,117.3z"
	/>
<path class="st1" d="M223.9,373.7c19.2-2.7,36.1-22.8,46.7-52.4c-15.3-3.4-31-5.3-46.7-5.5L223.9,373.7z"/>
<path class="st1" d="M254.6,369c1.1-0.3,2.3-0.7,3.4-1c1-0.3,1.9-0.6,2.8-1c1.1-0.4,2.2-0.8,3.3-1.2c0.9-0.4,1.9-0.7,2.8-1.1
	l3.2-1.4c0.9-0.4,1.8-0.8,2.8-1.3s2.1-1,3.1-1.5s1.8-0.9,2.7-1.4s2-1.1,3-1.7s1.8-1,2.6-1.5l2.9-1.8c0.9-0.5,1.7-1.1,2.6-1.7
	s1.9-1.3,2.8-2s1.7-1.2,2.5-1.8s1.8-1.4,2.7-2.1s1.6-1.3,2.4-1.9s1.8-1.5,2.6-2.3s1.5-1.4,2.3-2s1.7-1.6,2.5-2.5s1.5-1.4,2.2-2.1
	l0.4-0.4c-9.8-5.1-20.1-9-30.8-11.9c-5.5,17.7-15.4,33.7-28.7,46.6l1.1-0.3C252.8,369.6,253.7,369.3,254.6,369z"/>
<path class="st1" d="M345.2,252.7h-53.9c-0.2,21-3.3,42-9.1,62.2c11.9,3.2,23.3,7.7,34.1,13.6C334,307.1,344.2,280.5,345.2,252.7z"
	/>
<path class="st1" d="M223.9,243.8h58.4c-0.2-20.3-3.2-40.5-8.9-60c-16.3,3.7-32.9,5.7-49.5,5.9L223.9,243.8z"/>
<path class="st1" d="M223.9,122.8v57.9c15.7-0.2,31.4-2.1,46.7-5.5C260,145.6,243.1,125.5,223.9,122.8z"/>
<path class="st1" d="M223.9,306.8c16.7,0.2,33.3,2.2,49.5,5.9c5.6-19.5,8.6-39.7,8.9-60h-58.4V306.8z"/>
<path class="st1" d="M316.3,168c-10.8,5.8-22.2,10.4-34.1,13.6c5.8,20.2,8.9,41.1,9.1,62.2h53.9C344.2,216,334,189.4,316.3,168z"/>
<path class="st1" d="M310.2,161.2l-0.4-0.4c-0.7-0.7-1.5-1.4-2.2-2.1s-1.7-1.6-2.5-2.4s-1.5-1.4-2.3-2s-1.7-1.6-2.6-2.3
	s-1.6-1.3-2.4-1.9s-1.8-1.4-2.8-2.1s-1.6-1.2-2.5-1.8s-1.9-1.4-2.8-2s-1.7-1.1-2.5-1.7s-1.9-1.2-2.9-1.8s-1.7-1-2.6-1.5
	s-2-1.1-3-1.7s-1.8-0.9-2.7-1.4s-2.1-1-3.1-1.5c-0.9-0.4-1.8-0.8-2.7-1.3c-1.1-0.5-2.1-0.9-3.2-1.4s-1.9-0.8-2.8-1.1
	c-1.1-0.4-2.2-0.8-3.3-1.2c-0.9-0.3-1.9-0.7-2.8-1c-1.1-0.4-2.3-0.7-3.4-1c-0.9-0.3-1.9-0.6-2.8-0.8l-1.1-0.3
	c13.3,12.9,23.2,28.9,28.7,46.6C290.1,170.2,300.4,166.3,310.2,161.2z"/>
<path class="st1" d="M93.7,243.8h53.9c0.2-21,3.3-42,9.1-62.2c-11.9-3.2-23.3-7.7-34.1-13.6C104.8,189.4,94.7,216,93.7,243.8z"/>
<path class="st1" d="M214.9,373.7v-57.9c-15.7,0.2-31.4,2.1-46.7,5.5C178.9,350.9,195.7,371,214.9,373.7z"/>
<path class="st1" d="M214.9,252.7h-58.4c0.2,20.3,3.2,40.5,8.9,60c16.3-3.7,32.9-5.7,49.5-5.9L214.9,252.7z"/>
<path class="st1" d="M214.9,122.8c-19.2,2.7-36.1,22.8-46.7,52.4c15.3,3.4,31,5.3,46.7,5.5V122.8z"/>
<path class="st1" d="M214.9,189.7c-16.7-0.2-33.3-2.2-49.5-5.9c-5.6,19.5-8.6,39.7-8.9,60h58.4L214.9,189.7z"/>
<path class="st1" d="M188.1,126.4l-1.1,0.3c-1,0.3-1.9,0.5-2.8,0.8c-1.1,0.3-2.3,0.7-3.4,1c-1,0.3-1.9,0.6-2.8,1
	c-1.1,0.4-2.2,0.8-3.3,1.2s-1.9,0.7-2.8,1.1l-3.2,1.4c-0.9,0.4-1.8,0.8-2.8,1.3s-2.1,1-3.1,1.5s-1.8,0.9-2.7,1.4s-2,1.1-3,1.7
	s-1.8,1-2.6,1.5s-1.9,1.2-2.9,1.8s-1.7,1.1-2.6,1.7s-1.9,1.3-2.8,2s-1.7,1.2-2.5,1.8s-1.8,1.4-2.7,2.1s-1.6,1.3-2.4,1.9
	s-1.8,1.5-2.6,2.3s-1.5,1.4-2.3,2.1s-1.7,1.6-2.5,2.4s-1.5,1.4-2.2,2.2l-0.4,0.4c9.8,5,20.2,9,30.8,11.8
	C165,155.3,174.8,139.3,188.1,126.4z"/>
<path class="st1" d="M131.2,337.9c0.8,0.8,1.7,1.6,2.5,2.5s1.5,1.4,2.3,2s1.7,1.5,2.6,2.3s1.6,1.3,2.4,1.9s1.8,1.5,2.8,2.1
	s1.6,1.2,2.5,1.8s1.9,1.4,2.8,2s1.7,1.1,2.6,1.7s1.9,1.2,2.9,1.8s1.7,1,2.6,1.5s2,1.1,3,1.7s1.8,0.9,2.7,1.4s2.1,1,3.1,1.5
	c0.9,0.4,1.8,0.8,2.7,1.3c1.1,0.5,2.1,0.9,3.2,1.4s1.9,0.8,2.8,1.1c1.1,0.4,2.2,0.8,3.3,1.2c0.9,0.3,1.9,0.7,2.8,1
	c1.1,0.4,2.3,0.7,3.4,1c0.9,0.3,1.9,0.5,2.8,0.8l1.1,0.3c-13.3-12.9-23.2-28.9-28.7-46.6c-10.7,2.8-21,6.8-30.8,11.9l0.4,0.4
	C129.7,336.5,130.4,337.2,131.2,337.9z"/>
<path class="st1" d="M122.6,328.5c10.8-5.8,22.2-10.4,34.1-13.6c-5.8-20.2-8.9-41.1-9.1-62.2H93.7
	C94.7,280.5,104.8,307.1,122.6,328.5z"/>
<polygon class="st4" points="213.5,382.3 109.3,382.3 109.3,278 "/>
<polygon class="st4" points="324.5,167 324.5,270.2 313.6,259.3 293.8,239.5 221.3,167 "/>
<polygon class="st4" points="109.3,259.3 109.4,259.3 109.3,259.2 "/>
<path class="st4" d="M324.9,316.5c0,12.4-3.5,24.6-10.2,35.1c-5.3,8.4-12.5,15.5-21,20.7c-9.3,5.7-19.8,9.1-30.7,9.7
	c-1.2,0.1-2.4,0.1-3.7,0.1c-16.9,0-33.1-6.5-45.2-18.1c-0.3-0.3-0.9-0.8-0.9-0.8l-11.6-11.6h-0.1v-0.1l-30.6-30.6h-0.1v-0.1
	L140.1,290H140v-0.1l-10.3-10.3c0,0-4.1-4.4-4.8-5.2c-10-11.8-15.4-26.8-15.4-42.2c0-1.2,0-2.4,0.1-3.7c0.6-10.9,3.9-21.5,9.7-30.8
	c5.2-8.5,12.3-15.7,20.7-21c24.6-15.6,56.7-13.1,78.5,6.3c2,1.8,3.9,3.7,5.7,5.7l78.6,78.6c2,1.8,3.9,3.7,5.7,5.7
	C319,284.9,324.9,300.4,324.9,316.5L324.9,316.5z"/>
</svg>
